<svg width="65" height="57" viewBox="0 0 65 57" fill="none" xmlns="http://www.w3.org/2000/svg">
<ellipse cx="25.9911" cy="23.2252" rx="1.24136" ry="1.39737" transform="rotate(-90 25.9911 23.2252)" fill="#3758F9"/>
<ellipse cx="38.288" cy="23.2252" rx="1.24136" ry="1.39737" transform="rotate(-90 38.288 23.2252)" fill="#3758F9"/>
<ellipse cx="50.5849" cy="23.2252" rx="1.24136" ry="1.39737" transform="rotate(-90 50.5849 23.2252)" fill="#3758F9"/>
<ellipse cx="62.7216" cy="23.2252" rx="1.24136" ry="1.39737" transform="rotate(-90 62.7216 23.2252)" fill="#3758F9"/>
<ellipse cx="25.9911" cy="12.3015" rx="1.24136" ry="1.39737" transform="rotate(-90 25.9911 12.3015)" fill="#3758F9"/>
<ellipse cx="38.288" cy="12.3015" rx="1.24136" ry="1.39737" transform="rotate(-90 38.288 12.3015)" fill="#3758F9"/>
<ellipse cx="50.5849" cy="12.3015" rx="1.24136" ry="1.39737" transform="rotate(-90 50.5849 12.3015)" fill="#3758F9"/>
<ellipse cx="62.7216" cy="12.3015" rx="1.24136" ry="1.39737" transform="rotate(-90 62.7216 12.3015)" fill="#3758F9"/>
<ellipse cx="25.9911" cy="33.901" rx="1.24136" ry="1.39737" transform="rotate(-90 25.9911 33.901)" fill="#3758F9"/>
<ellipse cx="25.9911" cy="1.37754" rx="1.24136" ry="1.39737" transform="rotate(-90 25.9911 1.37754)" fill="#3758F9"/>
<ellipse cx="38.288" cy="33.901" rx="1.24136" ry="1.39737" transform="rotate(-90 38.288 33.901)" fill="#3758F9"/>
<ellipse cx="38.288" cy="1.37754" rx="1.24136" ry="1.39737" transform="rotate(-90 38.288 1.37754)" fill="#3758F9"/>
<ellipse cx="50.5849" cy="33.901" rx="1.24136" ry="1.39737" transform="rotate(-90 50.5849 33.901)" fill="#3758F9"/>
<ellipse cx="62.7216" cy="33.901" rx="1.24136" ry="1.39737" transform="rotate(-90 62.7216 33.901)" fill="#3758F9"/>
<ellipse cx="50.5849" cy="1.37754" rx="1.24136" ry="1.39737" transform="rotate(-90 50.5849 1.37754)" fill="#3758F9"/>
<ellipse cx="62.7216" cy="1.37754" rx="1.24136" ry="1.39737" transform="rotate(-90 62.7216 1.37754)" fill="#3758F9"/>
</svg>
